<?xml version="1.0" encoding="UTF-8" standalone="no"?>
<!DOCTYPE svg PUBLIC "-//W3C//DTD SVG 1.1//EN"
 "http://www.w3.org/Graphics/SVG/1.1/DTD/svg11.dtd">
<!-- Generated by graphviz version 5.0.0 (20220707.1540)
 -->
<!-- Title: UmlClassDiagram Pages: 1 -->
<svg width="249pt" height="540pt"
 viewBox="0.00 0.00 248.96 539.60" xmlns="http://www.w3.org/2000/svg" xmlns:xlink="http://www.w3.org/1999/xlink">
<g id="graph0" class="graph" transform="scale(1 1) rotate(0) translate(4 535.6)">
<title>UmlClassDiagram</title>
<polygon fill="white" stroke="transparent" points="-4,4 -4,-535.6 244.96,-535.6 244.96,4 -4,4"/>
<!-- 1 -->
<g id="node1" class="node">
<title>1</title>
<polygon fill="#f2f2f2" stroke="black" points="48.12,-0.5 48.12,-201.3 192.84,-201.3 192.84,-0.5 48.12,-0.5"/>
<text text-anchor="middle" x="120.48" y="-184.7" font-family="Times,serif" font-size="14.00">&lt;&lt;Struct&gt;&gt;</text>
<text text-anchor="middle" x="120.48" y="-167.9" font-family="Times,serif" font-size="14.00">payments</text>
<text text-anchor="middle" x="120.48" y="-151.1" font-family="Times,serif" font-size="14.00">srcStore.sol</text>
<polyline fill="none" stroke="black" points="48.12,-142.9 192.84,-142.9 "/>
<text text-anchor="start" x="56.12" y="-126.3" font-family="Times,serif" font-size="14.00">valid: bool</text>
<text text-anchor="start" x="56.12" y="-109.5" font-family="Times,serif" font-size="14.00">amount: uint256</text>
<text text-anchor="start" x="56.12" y="-92.7" font-family="Times,serif" font-size="14.00">sender: address</text>
<text text-anchor="start" x="56.12" y="-75.9" font-family="Times,serif" font-size="14.00">paymentType: uint8</text>
<text text-anchor="start" x="56.12" y="-59.1" font-family="Times,serif" font-size="14.00">finalAmount: uint256</text>
<text text-anchor="start" x="56.12" y="-42.3" font-family="Times,serif" font-size="14.00">receiver: address</text>
<text text-anchor="start" x="56.12" y="-25.5" font-family="Times,serif" font-size="14.00">initialAmount: uint256</text>
<text text-anchor="start" x="56.12" y="-8.7" font-family="Times,serif" font-size="14.00">checked: bool</text>
</g>
<!-- 0 -->
<g id="node2" class="node">
<title>0</title>
<polygon fill="#f2f2f2" stroke="black" points="0,-238.3 0,-531.1 240.96,-531.1 240.96,-238.3 0,-238.3"/>
<text text-anchor="middle" x="120.48" y="-514.5" font-family="Times,serif" font-size="14.00">Store</text>
<text text-anchor="middle" x="120.48" y="-497.7" font-family="Times,serif" font-size="14.00">srcStore.sol</text>
<polyline fill="none" stroke="black" points="0,-489.5 240.96,-489.5 "/>
<text text-anchor="start" x="8" y="-472.9" font-family="Times,serif" font-size="14.00">Public:</text>
<text text-anchor="start" x="8" y="-456.1" font-family="Times,serif" font-size="14.00"> &#160;&#160;index: uint8</text>
<text text-anchor="start" x="8" y="-439.3" font-family="Times,serif" font-size="14.00"> &#160;&#160;number: uint256</text>
<text text-anchor="start" x="8" y="-422.5" font-family="Times,serif" font-size="14.00"> &#160;&#160;flag1: bool</text>
<text text-anchor="start" x="8" y="-405.7" font-family="Times,serif" font-size="14.00"> &#160;&#160;admin: address</text>
<text text-anchor="start" x="8" y="-388.9" font-family="Times,serif" font-size="14.00"> &#160;&#160;balances: mapping(address=&gt;uint256)</text>
<text text-anchor="start" x="8" y="-372.1" font-family="Times,serif" font-size="14.00"> &#160;&#160;flag2: bool</text>
<text text-anchor="start" x="8" y="-355.3" font-family="Times,serif" font-size="14.00"> &#160;&#160;admin2: address</text>
<text text-anchor="start" x="8" y="-338.5" font-family="Times,serif" font-size="14.00"> &#160;&#160;flag3: bool</text>
<text text-anchor="start" x="8" y="-321.7" font-family="Times,serif" font-size="14.00"> &#160;&#160;topPayments: payments[8]</text>
<polyline fill="none" stroke="black" points="0,-313.5 240.96,-313.5 "/>
<text text-anchor="start" x="8" y="-296.9" font-family="Times,serif" font-size="14.00">Public:</text>
<text text-anchor="start" x="8" y="-280.1" font-family="Times,serif" font-size="14.00"> &#160;&#160;&#160;constructor()</text>
<text text-anchor="start" x="8" y="-263.3" font-family="Times,serif" font-size="14.00"> &#160;&#160;&#160;setNumber(newNumber: uint256)</text>
<text text-anchor="start" x="8" y="-246.5" font-family="Times,serif" font-size="14.00"> &#160;&#160;&#160;increment()</text>
</g>
<!-- 1&#45;&gt;0 -->
<g id="edge1" class="edge">
<title>1&#45;&gt;0</title>
<path fill="none" stroke="black" d="M113.99,-201.65C113.89,-209.63 113.81,-217.8 113.77,-226.05"/>
<polygon fill="black" stroke="black" points="113.77,-226.18 117.75,-232.19 113.73,-238.18 109.75,-232.16 113.77,-226.18"/>
</g>
<!-- 0&#45;&gt;1 -->
<g id="edge2" class="edge">
<title>0&#45;&gt;1</title>
<path fill="none" stroke="black" d="M127.23,-238.18C127.21,-229.3 127.16,-220.45 127.08,-211.76"/>
<polygon fill="black" stroke="black" points="130.58,-211.61 126.97,-201.65 123.58,-211.69 130.58,-211.61"/>
</g>
</g>
</svg>
